<mxfile host="app.diagrams.net" modified="2024-02-17T20:59:00.891Z" agent="Mozilla/5.0 (Windows NT 10.0; Win64; x64) AppleWebKit/537.36 (KHTML, like Gecko) Chrome/121.0.0.0 Safari/537.36" version="23.1.5" etag="A0dJvkg8mwfe6vaK0YGf" type="github">
  <diagram name="PÃ¡gina-1" id="OFW-OKg8QARlLbGtG4IY">
    <mxGraphModel>
      <root>
        <mxCell id="0" />
        <mxCell id="1" parent="0" />
      </root>
    </mxGraphModel>
  </diagram>
</mxfile>
